<?xml version="1.0" encoding="UTF-8" standalone="no"?>
<svg
   xmlns:dc="http://purl.org/dc/elements/1.1/"
   xmlns:cc="http://creativecommons.org/ns#"
   xmlns:rdf="http://www.w3.org/1999/02/22-rdf-syntax-ns#"
   xmlns:svg="http://www.w3.org/2000/svg"
   xmlns="http://www.w3.org/2000/svg"
   xmlns:sodipodi="http://sodipodi.sourceforge.net/DTD/sodipodi-0.dtd"
   xmlns:inkscape="http://www.inkscape.org/namespaces/inkscape"
   version="1.1"
   id="mdi-pi-hole"
   width="24"
   height="24"
   viewBox="0 0 24 24"
   sodipodi:docname="pi-hole-disabled-symbolic.svg"
   inkscape:version="1.0.1 (3bc2e813f5, 2020-09-07)">
  <metadata
     id="metadata1192">
    <rdf:RDF>
      <cc:Work
         rdf:about="">
        <dc:format>image/svg+xml</dc:format>
        <dc:type
           rdf:resource="http://purl.org/dc/dcmitype/StillImage" />
      </cc:Work>
    </rdf:RDF>
  </metadata>
  <defs
     id="defs1190" />
  <sodipodi:namedview
     pagecolor="#ffffff"
     bordercolor="#666666"
     borderopacity="1"
     objecttolerance="10"
     gridtolerance="10"
     guidetolerance="10"
     inkscape:pageopacity="0"
     inkscape:pageshadow="2"
     inkscape:window-width="1266"
     inkscape:window-height="1053"
     id="namedview1188"
     showgrid="false"
     inkscape:zoom="28.844358"
     inkscape:cx="11.830741"
     inkscape:cy="11.326561"
     inkscape:window-x="794"
     inkscape:window-y="156"
     inkscape:window-maximized="0"
     inkscape:current-layer="mdi-pi-hole" />
  <path
     id="rect1863"
     style="fill:#000000;fill-opacity:1;stroke:#000000;stroke-width:0.1;stroke-linejoin:round;stroke-miterlimit:4;stroke-dasharray:none"
     d="M 1.8144531 0.68554688 C 1.2374455 0.68554688 0.7734375 1.151508 0.7734375 1.7285156 L 0.7734375 22.130859 C 0.7734375 22.707867 1.2374455 23.171875 1.8144531 23.171875 L 22.216797 23.171875 C 22.793805 23.171875 23.259766 22.707867 23.259766 22.130859 L 23.259766 1.7285156 C 23.259766 1.151508 22.793805 0.68554688 22.216797 0.68554688 L 1.8144531 0.68554688 z M 5.6191406 2 C 9.4991406 2 11.569531 4.2896875 11.769531 7.9296875 C 12.499531 3.5696875 15.929688 4.0800781 15.929688 4.0800781 C 16.099688 6.5500781 14.069531 8.0499219 11.769531 8.1699219 C 11.119531 6.8099219 7.25 3.4707031 7.25 3.4707031 C 7.23 3.5007031 10.970078 6.7403906 10.830078 8.1503906 C 8.3300781 7.8803906 5.8191406 6 5.6191406 2 z M 12.042969 8.3730469 C 12.811719 8.3730469 13.580156 8.665 14.160156 9.25 L 18 13.109375 C 19.19 14.279375 19.19 16.179609 18 17.349609 L 14.160156 21.210938 C 13.000156 22.380938 11.089922 22.380937 9.9199219 21.210938 L 6.0605469 17.349609 C 4.8905469 16.179609 4.8905469 14.279375 6.0605469 13.109375 L 9.9199219 9.25 C 10.504922 8.665 11.274219 8.3730469 12.042969 8.3730469 z M 14.689453 11.339844 C 14.629453 12.329844 13.82 13.769531 12 13.769531 C 10.59 13.769531 9.5491406 12.630859 7.8691406 12.630859 C 8.5791406 12.670859 10.5 13.299609 10.5 15.349609 C 10.5 16.999609 9.390625 17.499844 9.390625 19.589844 C 9.390625 18.359844 10.149844 16.849609 12.089844 16.849609 C 13.399844 16.849609 14.870547 18.100938 16.310547 17.960938 C 14.870547 17.920938 13.589844 16.849453 13.589844 15.189453 C 13.589844 13.859453 14.689453 12.899844 14.689453 11.339844 z " />
</svg>
